# xmcd
#
# Track frame offsets:
#	150
#	10973
#	20804
#	32521
#	45754
#	58413
#	69010
#	82229
#	94848
#	105058
#
# Disc length: 1683 seconds
#
# Revision: 0
# Processed by: cddbd v1.5.2PL0 Copyright (c) Steve Scherf et al.
# Submitted via: EasyCDDAExtractor 10.0.2.1
#
DISCID=7106910a
DTITLE=Luke Smith - It's Not Wrong It's Just Different 
DYEAR=200
DGENRE=Blues-Pop
TTITLE0=It's Not Wrong It's Just Different 
TTITLE1=Please Be My Girlfriend
TTITLE2=I Like Being Cosy
TTITLE3=Playing By The Rules
TTITLE4=Biding My Time
TTITLE5=I'm Intense
TTITLE6=She's A Do-er
TTITLE7=Same Old
TTITLE8=Say Too Much
TTITLE9=Simple Pleasures
EXTD=
EXTT0=
EXTT1=
EXTT2=
EXTT3=
EXTT4=
EXTT5=
EXTT6=
EXTT7=
EXTT8=
EXTT9=
PLAYORDER=
